<svg width="41" height="42" viewBox="0 0 41 42" fill="none" xmlns="http://www.w3.org/2000/svg">
<path d="M12.361 32.8153C11.487 32.0584 10.4658 30.6235 8.66866 28.8837C7.74556 27.9008 5.22139 26.082 4.34732 25.3251C3.69924 24.5192 3.6012 24.0672 3.63109 23.1142C3.56295 21.7092 4.67378 20.2851 6.25573 19.9419C7.3857 19.6968 8.71176 20.3557 9.7628 20.8376C10.3128 21.1915 11.1869 21.9484 11.7369 22.3024C12.287 22.6563 12.336 22.8823 12.886 23.2362C13.4851 23.8162 13.8091 24.2191 13.387 23.3642C12.9159 22.2832 12.2977 20.5243 11.4536 18.8144C10.9334 17.5074 10.6584 17.3305 10.2363 16.4755C9.76522 15.3945 9.39216 14.7656 8.92105 13.6846C8.54799 13.0557 7.92981 11.2967 7.50772 10.4418C7.03661 9.36081 6.5954 7.32686 7.30328 6.22678C7.83418 5.40173 9.14112 4.8816 10.1431 5.1375C11.4202 5.57037 12.4413 7.00527 12.8144 7.63423C13.5115 8.66616 14.3066 10.1501 14.9248 11.909C15.867 14.0709 17.2804 17.3138 17.4274 17.9918C17.2313 17.0878 16.6622 15.5548 16.6921 14.6018C16.771 13.8748 17.0269 12.8728 17.8818 12.4507C18.5108 12.0777 19.1888 11.9306 19.8667 11.7835C20.5937 11.8624 21.3698 12.1674 21.9198 12.5213C23.1179 13.6812 23.7552 16.6191 23.7062 16.3931C23.7361 15.4401 23.3439 13.6322 23.5998 12.6301C23.7277 12.1291 24.5337 11.481 24.9366 11.157C25.5656 10.7839 26.4696 10.5878 27.1966 10.6668C27.6485 10.5687 28.6996 11.0506 29.0236 11.4536C29.6227 12.0335 30.3389 14.2445 30.761 15.0994C30.81 15.3254 30.7909 14.1464 31.0958 13.3704C31.7056 11.8183 34.7715 10.68 35.6838 13.7949C36.027 15.3769 35.978 15.1509 36.2231 16.2809C36.4682 17.4108 36.6153 18.0888 36.8114 18.9928C37.0074 19.8968 37.2227 21.9798 37.1928 22.9328C37.1138 23.6598 36.779 25.3888 36.2971 26.4399C36.2971 26.4399 34.3995 29.6911 34.4677 31.0961C34.5358 32.5011 34.5358 32.5011 34.7319 33.405C34.928 34.309 35.3991 35.39 35.3991 35.39C35.3991 35.39 33.6402 36.0081 32.6872 35.9782C31.7342 35.9483 30.2611 34.6115 29.888 33.9825C29.2889 33.4026 28.611 33.5497 28.3061 34.3257C28.0502 35.3277 27.2634 37.1548 26.3594 37.3509C24.8265 37.92 21.6135 38.3804 19.3536 38.8706C19.3536 38.8706 19.3154 36.5126 18.2153 35.8047C17.3903 35.2738 16.0152 34.3889 15.1901 33.858L12.361 32.8153Z" fill="white"/>
<path d="M12.361 32.8153C11.487 32.0584 10.4658 30.6235 8.66866 28.8837C7.74556 27.9008 5.22139 26.082 4.34732 25.3251C3.69924 24.5192 3.6012 24.0672 3.63109 23.1142C3.56295 21.7092 4.67378 20.2851 6.25573 19.9419C7.3857 19.6968 8.71176 20.3557 9.7628 20.8376C10.3128 21.1915 11.1869 21.9484 11.7369 22.3024C12.287 22.6563 12.336 22.8823 12.886 23.2362C13.4851 23.8162 13.8091 24.2191 13.387 23.3642C12.9159 22.2832 12.2977 20.5243 11.4536 18.8144C10.9334 17.5074 10.6584 17.3305 10.2363 16.4755C9.76522 15.3945 9.39216 14.7656 8.92105 13.6846C8.54799 13.0557 7.92981 11.2967 7.50772 10.4418C7.03661 9.36081 6.5954 7.32686 7.30328 6.22678C7.83418 5.40173 9.14112 4.8816 10.1431 5.1375C11.4202 5.57037 12.4413 7.00527 12.8144 7.63423C13.5115 8.66616 14.3066 10.1501 14.9248 11.909C15.867 14.0709 17.2804 17.3138 17.4274 17.9918C17.2313 17.0878 16.6622 15.5548 16.6921 14.6018C16.771 13.8748 17.0269 12.8728 17.8818 12.4507C18.5108 12.0777 19.1888 11.9306 19.8667 11.7835C20.5937 11.8624 21.3698 12.1674 21.9198 12.5213C23.1179 13.6812 23.7552 16.6191 23.7062 16.3931C23.7361 15.4401 23.3439 13.6322 23.5998 12.6301C23.7277 12.1291 24.5337 11.481 24.9366 11.157C25.5656 10.7839 26.4696 10.5878 27.1966 10.6668C27.6485 10.5687 28.6996 11.0506 29.0236 11.4536C29.6227 12.0335 30.3389 14.2445 30.761 15.0994C30.81 15.3254 30.7909 14.1464 31.0958 13.3704C31.7056 11.8183 34.7715 10.68 35.6838 13.7949C36.027 15.3769 35.978 15.1509 36.2231 16.2809C36.4682 17.4108 36.6153 18.0888 36.8114 18.9928C37.0074 19.8968 37.2227 21.9798 37.1928 22.9328C37.1138 23.6598 36.779 25.3888 36.2971 26.4399C36.2971 26.4399 34.3995 29.6911 34.4677 31.0961C34.5358 32.5011 34.5358 32.5011 34.7319 33.405C34.928 34.309 35.3991 35.39 35.3991 35.39C35.3991 35.39 33.6402 36.0081 32.6872 35.9782C31.7342 35.9483 30.2611 34.6115 29.888 33.9825C29.2889 33.4026 28.611 33.5497 28.3061 34.3257C28.0502 35.3277 27.2634 37.1548 26.3594 37.3509C24.8265 37.92 21.6135 38.3804 19.3536 38.8706C19.3536 38.8706 19.3154 36.5126 18.2153 35.8047C17.3903 35.2738 16.0152 34.3889 15.1901 33.858L12.361 32.8153Z" stroke="#151E24" stroke-width="0.75" stroke-linecap="round" stroke-linejoin="round"/>
<path d="M31.2654 29.4245L29.5986 21.7407" stroke="#151E24" stroke-width="0.75" stroke-linecap="round"/>
<path d="M26.7463 30.405L24.8535 22.7703" stroke="#151E24" stroke-width="0.75" stroke-linecap="round"/>
<path d="M20.5586 23.7019L22.2254 31.3857" stroke="#151E24" stroke-width="0.75" stroke-linecap="round"/>
</svg>
